<svg xmlns="http://www.w3.org/2000/svg" width="300" height="270" version="1.0" viewBox="0 0 224.87999 202.499994"><defs><clipPath id="a"><path d="M.21875 98.199219h224.324219v14.941406H.21875Zm0 0"/></clipPath></defs><path fill="#101e26" d="M110.160598 123.883534c.632813 1.054687 1.25 1.886719 1.84375 2.5.59375.617187 1.367187 1.171875 2.328125 1.671875v1.375c-3.835938-.132812-7.9375-.203125-12.3125-.203125-3.375 0-6.640625.070313-9.796875.203125v-1.375c1.46875-.082031 2.484375-.203125 3.046875-.359375.570312-.164063.859375-.476563.859375-.9375 0-.457031-.230469-1.050781-.6875-1.78125l-9.921875-16.75c-.636719-1.101563-1.171875-1.859375-1.609375-2.265625-.429687-.40625-.964844-.65625-1.609375-.75v16.96875c0 1.730469.125 2.984375.375 3.765625.257812.773437.707031 1.296875 1.34375 1.578125.632812.273438 1.679688.449219 3.140625.53125v1.375c-2.648437-.132812-6.453125-.203125-11.421875-.203125-5.523438 0-9.578125.070313-12.171875.203125v-1.375c1.457031-.082031 2.515625-.257812 3.171875-.53125.664062-.28125 1.113281-.804688 1.34375-1.578125.226562-.78125.34375-2.035156.34375-3.765625v-33.9375c0-1.738281-.132812-2.992188-.390625-3.765625-.25-.769531-.695313-1.289063-1.328125-1.5625-.636719-.28125-1.683594-.46875-3.140625-.5625v-1.359375c2.59375.136719 6.648437.203125 12.171875.203125 4.925781 0 8.734375-.066406 11.421875-.203125v1.359375c-1.460937.09375-2.523437.28125-3.1875.5625-.65625.273437-1.101563.792969-1.328125 1.5625-.230469.773437-.34375 2.027344-.34375 3.765625v15.453125c1.832031-.132813 3.613281-.816406 5.34375-2.046875 1.726562-1.226562 3.847656-3.257812 6.359375-6.09375l2.328125-2.59375c2.007812-2.28125 3.015625-4.332031 3.015625-6.15625 0-1.320312-.527344-2.378906-1.578125-3.171875-1.054688-.800781-2.398438-1.25-4.03125-1.34375v-1.296875c3.832031.136719 7.6875.203125 11.5625.203125 2.78125 0 5.082031-.066406 6.90625-.203125v1.296875c-3.96875 1.054687-7.710938 3.5625-11.21875 7.53125l-6.703125 7.59375ZM147.576744 109.867909v11.625c0 1.917969.191406 3.308594.578125 4.171875.394531.867187 1.101563 1.449219 2.125 1.75 1.03125.292969 2.664063.4375 4.90625.4375v1.578125c-6.167969-.132812-10.871094-.203125-14.109375-.203125-2.136719 0-5.121094.046875-8.953125.140625l-3.28125.0625v-1.375c1.457031-.082031 2.515625-.257812 3.171875-.53125.664062-.28125 1.113281-.804688 1.34375-1.578125.226562-.78125.34375-2.035156.34375-3.765625v-33.9375c0-1.738281-.132812-2.992188-.390625-3.765625-.25-.769531-.695313-1.289063-1.328125-1.5625-.636719-.28125-1.683594-.46875-3.140625-.5625v-1.359375c2.59375.136719 6.515625.203125 11.765625.203125l7.859375-.078125c.914063-.039062 1.96875-.0625 3.15625-.0625 6.75 0 11.867187 1.226562 15.359375 3.671875 3.488281 2.4375 5.234375 5.710937 5.234375 9.8125 0 2.511719-.6875 4.917969-2.0625 7.21875-1.367187 2.304687-3.6875 4.230469-6.96875 5.78125-3.28125 1.554687-7.640625 2.328125-13.078125 2.328125Zm3.703125-27.515625c-1.054687 0-1.84375.164063-2.375.484375-.523437.324219-.875.898438-1.0625 1.71875-.179687.8125-.265625 2.042969-.265625 3.6875v20.25h1.859375c3.1875 0 5.382813-1.179688 6.59375-3.546875 1.207031-2.375 1.8125-5.59375 1.8125-9.65625 0-4.425781-.5-7.6875-1.5-9.78125-1-2.101563-2.6875-3.15625-5.0625-3.15625Zm0 0"/><g clip-path="url(#a)"><path fill="#f27405" d="M.21875 98.199219h224.441406v15.148437H.21875Zm0 0"/></g><path fill="#fff" d="m45.720778 109.638827-2.359375-3.515625-1.1875 1.3125v2.203125h-2.28125v-8.9375h2.28125v3.875l3.421875-3.875h2.625l-3.328125 3.703125 3.546875 5.234375ZM60.465317 107.998202h-3.90625l-.65625 1.640625h-2.328125l3.859375-8.9375h2.328125l3.765625 8.9375h-2.421875Zm-.65625-1.734375-1.28125-3.296875-1.296875 3.296875ZM79.268813 109.638827h-2l-.015625-5.8125-2.140625 4.921875h-1.484375l-2.140625-4.921875v5.8125h-2.03125v-8.953125h2.5l2.421875 5.328125 2.421875-5.328125h2.46875ZM92.107835 107.998202h-3.90625l-.65625 1.640625H85.21721l3.859375-8.9375h2.328125l3.765625 8.9375H92.74846Zm-.65625-1.734375-1.28125-3.296875-1.296875 3.296875ZM109.348832 109.638827h-2l-4.109375-5.5v5.5h-2.140625v-8.9375h2l4.125 5.515625v-5.515625h2.125ZM124.298403 100.701327h3.890625c1.144531 0 2.03125.273438 2.65625.8125.632812.542969.953125 1.308594.953125 2.296875 0 1.054687-.320313 1.871094-.953125 2.453125-.625.574219-1.511719.859375-2.65625.859375h-1.609375v2.515625h-2.28125Zm2.28125 1.78125v2.859375h1.5c.5 0 .882813-.125 1.15625-.375.28125-.25.421875-.609375.421875-1.078125 0-.457031-.140625-.804688-.421875-1.046875-.273437-.238281-.65625-.359375-1.15625-.359375ZM144.016571 107.998202h-3.90625l-.65625 1.640625h-2.328125l3.859375-8.9375h2.328125l3.765625 8.9375h-2.421875Zm-.65625-1.734375-1.28125-3.296875-1.296875 3.296875ZM155.288819 107.732577h3.78125v1.90625h-6.0625v-8.9375h2.28125ZM172.257792 102.482577h-4.71875v1.78125h4.25v1.78125h-4.25v1.8125h4.859375v1.78125h-7.140625v-8.9375h7ZM185.790059 102.529452h-2.6875v7.109375h-2.28125v-7.109375h-2.65625v-1.84375h7.625Zm0 0"/></svg>